<svg width="30" height="30" viewBox="0 0 30 30" fill="none" xmlns="http://www.w3.org/2000/svg">
    <mask id="mask0_49_31072" style="mask-type:alpha" maskUnits="userSpaceOnUse" x="0" y="0" width="30" height="30">
        <rect width="30" height="30" fill="#C4C4C4"/>
    </mask>
    <g mask="url(#mask0_49_31072)">
        <path d="M21.9057 28.0165H17.553C17.0278 27.7878 16.8403 27.3897 16.8479 26.8186C16.8717 25.0874 16.8577 23.3562 16.856 21.6244C16.856 20.9582 16.4811 20.5891 15.8113 20.5873C15.2797 20.5873 14.7479 20.5873 14.2159 20.5873C13.5009 20.5873 13.1432 20.9429 13.1429 21.654C13.1429 23.3759 13.1283 25.0979 13.151 26.8192C13.1585 27.3891 12.9728 27.789 12.4464 28.017H8.09375C8.07982 28.0049 8.06763 27.9851 8.05138 27.9805C6.4554 27.5649 5.71429 26.605 5.71429 24.9522V15.945C4.87451 15.945 4.06375 15.9207 3.25531 15.9532C2.67031 15.977 2.23911 15.8034 2 15.2486V14.7843C2.17411 14.558 2.32674 14.3096 2.52696 14.1094C6.40568 10.221 10.2877 6.33607 14.173 2.45464C14.7789 1.84874 15.2223 1.84816 15.8276 2.45464C19.7044 6.33142 23.5798 10.2094 27.4539 14.0885C27.6605 14.2962 27.8189 14.5528 28 14.7849V15.2492C27.7603 15.8028 27.3303 15.9799 26.7453 15.9537C26.0216 15.9207 25.2944 15.9456 24.5701 15.9456H24.2851V16.3391C24.2851 19.2796 24.2851 22.2189 24.2851 25.157C24.2851 26.4385 23.5365 27.493 22.37 27.8783C22.2162 27.9271 22.06 27.97 21.9057 28.0165Z" fill="#B16323"/>
        <path d="M21.9057 28.0165H17.553C17.0278 27.7878 16.8403 27.3897 16.8479 26.8186C16.8717 25.0874 16.8577 23.3562 16.856 21.6244C16.856 20.9582 16.4811 20.5891 15.8113 20.5873C15.2797 20.5873 14.7479 20.5873 14.2159 20.5873C13.5009 20.5873 13.1432 20.9429 13.1429 21.654C13.1429 23.3759 13.1283 25.0979 13.151 26.8192C13.1585 27.3891 12.9728 27.789 12.4464 28.017H8.09375C8.07982 28.0049 8.06763 27.9851 8.05138 27.9805C6.4554 27.5649 5.71429 26.605 5.71429 24.9522V15.945C4.87451 15.945 4.06375 15.9207 3.25531 15.9532C2.67031 15.977 2.23911 15.8034 2 15.2486V14.7843C2.17411 14.558 2.32674 14.3096 2.52696 14.1094C6.40568 10.221 10.2877 6.33607 14.173 2.45464C14.7789 1.84874 15.2223 1.84816 15.8276 2.45464C19.7044 6.33142 23.5798 10.2094 27.4539 14.0885C27.6605 14.2962 27.8189 14.5528 28 14.7849V15.2492C27.7603 15.8028 27.3303 15.9799 26.7453 15.9537C26.0216 15.9207 25.2944 15.9456 24.5701 15.9456H24.2851V16.3391C24.2851 19.2796 24.2851 22.2189 24.2851 25.157C24.2851 26.4385 23.5365 27.493 22.37 27.8783C22.2162 27.9271 22.06 27.97 21.9057 28.0165Z" fill="#B16323"/>
    </g>
</svg>
